<svg id="eDu2qaRwQrn1" xmlns="http://www.w3.org/2000/svg" xmlns:xlink="http://www.w3.org/1999/xlink" viewBox="0 0 741.1 348.7" shape-rendering="geometricPrecision" text-rendering="geometricPrecision"><style><![CDATA[#eDu2qaRwQrn10_to {animation: eDu2qaRwQrn10_to__to 3000ms linear 1 normal forwards}@keyframes eDu2qaRwQrn10_to__to { 0% {transform: translate(599.399963px,143.848747px)} 16.666667% {transform: translate(629.399963px,143.848747px)} 100% {transform: translate(629.399963px,143.848747px)}} #eDu2qaRwQrn10 {animation-name: eDu2qaRwQrn10_c_o, eDu2qaRwQrn10__fl;animation-duration: 3000ms;animation-fill-mode: forwards;animation-timing-function: linear;animation-direction: normal;animation-iteration-count: 1;}@keyframes eDu2qaRwQrn10_c_o { 0% {opacity: 0} 16.666667% {opacity: 1} 100% {opacity: 1}}@keyframes eDu2qaRwQrn10__fl { 0% {filter: blur(10px)} 16.666667% {filter: blur(0px)} 100% {filter: blur(0px)}} #eDu2qaRwQrn11_to {animation: eDu2qaRwQrn11_to__to 3000ms linear 1 normal forwards}@keyframes eDu2qaRwQrn11_to__to { 0% {transform: translate(327.550003px,141.093758px)} 16.666667% {transform: translate(357.550003px,141.093758px)} 100% {transform: translate(357.550003px,141.093758px)}} #eDu2qaRwQrn11 {animation-name: eDu2qaRwQrn11_c_o, eDu2qaRwQrn11__fl;animation-duration: 3000ms;animation-fill-mode: forwards;animation-timing-function: linear;animation-direction: normal;animation-iteration-count: 1;}@keyframes eDu2qaRwQrn11_c_o { 0% {opacity: 0} 16.666667% {opacity: 1} 100% {opacity: 1}}@keyframes eDu2qaRwQrn11__fl { 0% {filter: blur(10px)} 16.666667% {filter: blur(0px)} 100% {filter: blur(0px)}} #eDu2qaRwQrn12_to {animation: eDu2qaRwQrn12_to__to 3000ms linear 1 normal forwards}@keyframes eDu2qaRwQrn12_to__to { 0% {transform: translate(378.049988px,132.599998px)} 16.666667% {transform: translate(408.049988px,132.599998px)} 100% {transform: translate(408.049988px,132.599998px)}} #eDu2qaRwQrn12 {animation-name: eDu2qaRwQrn12_c_o, eDu2qaRwQrn12__fl;animation-duration: 3000ms;animation-fill-mode: forwards;animation-timing-function: linear;animation-direction: normal;animation-iteration-count: 1;}@keyframes eDu2qaRwQrn12_c_o { 0% {opacity: 0} 16.666667% {opacity: 1} 100% {opacity: 1}}@keyframes eDu2qaRwQrn12__fl { 0% {filter: blur(10px)} 16.666667% {filter: blur(0px)} 100% {filter: blur(0px)}} #eDu2qaRwQrn13_to {animation: eDu2qaRwQrn13_to__to 3000ms linear 1 normal forwards}@keyframes eDu2qaRwQrn13_to__to { 0% {transform: translate(426.387512px,132.500011px)} 16.666667% {transform: translate(456.387512px,132.500011px)} 100% {transform: translate(456.387512px,132.500011px)}} #eDu2qaRwQrn13 {animation-name: eDu2qaRwQrn13_c_o, eDu2qaRwQrn13__fl;animation-duration: 3000ms;animation-fill-mode: forwards;animation-timing-function: linear;animation-direction: normal;animation-iteration-count: 1;}@keyframes eDu2qaRwQrn13_c_o { 0% {opacity: 0} 16.666667% {opacity: 1} 100% {opacity: 1}}@keyframes eDu2qaRwQrn13__fl { 0% {filter: blur(10px)} 16.666667% {filter: blur(0px)} 100% {filter: blur(0px)}} #eDu2qaRwQrn14_to {animation: eDu2qaRwQrn14_to__to 3000ms linear 1 normal forwards}@keyframes eDu2qaRwQrn14_to__to { 0% {transform: translate(426.847961px,91.250004px)} 16.666667% {transform: translate(456.847961px,91.250004px)} 100% {transform: translate(456.847961px,91.250004px)}} #eDu2qaRwQrn14 {animation-name: eDu2qaRwQrn14_c_o, eDu2qaRwQrn14__fl;animation-duration: 3000ms;animation-fill-mode: forwards;animation-timing-function: linear;animation-direction: normal;animation-iteration-count: 1;}@keyframes eDu2qaRwQrn14_c_o { 0% {opacity: 0} 16.666667% {opacity: 1} 100% {opacity: 1}}@keyframes eDu2qaRwQrn14__fl { 0% {filter: blur(10px)} 16.666667% {filter: blur(0px)} 100% {filter: blur(0px)}} #eDu2qaRwQrn15_to {animation: eDu2qaRwQrn15_to__to 3000ms linear 1 normal forwards}@keyframes eDu2qaRwQrn15_to__to { 0% {transform: translate(465.750015px,124.599995px)} 16.666667% {transform: translate(495.750015px,124.599995px)} 100% {transform: translate(495.750015px,124.599995px)}} #eDu2qaRwQrn15 {animation-name: eDu2qaRwQrn15_c_o, eDu2qaRwQrn15__fl;animation-duration: 3000ms;animation-fill-mode: forwards;animation-timing-function: linear;animation-direction: normal;animation-iteration-count: 1;}@keyframes eDu2qaRwQrn15_c_o { 0% {opacity: 0} 16.666667% {opacity: 1} 100% {opacity: 1}}@keyframes eDu2qaRwQrn15__fl { 0% {filter: blur(10px)} 16.666667% {filter: blur(0px)} 100% {filter: blur(0px)}} #eDu2qaRwQrn16_to {animation: eDu2qaRwQrn16_to__to 3000ms linear 1 normal forwards}@keyframes eDu2qaRwQrn16_to__to { 0% {transform: translate(504.899994px,132.500004px)} 16.666667% {transform: translate(534.899994px,132.500004px)} 100% {transform: translate(534.899994px,132.500004px)}} #eDu2qaRwQrn16 {animation-name: eDu2qaRwQrn16_c_o, eDu2qaRwQrn16__fl;animation-duration: 3000ms;animation-fill-mode: forwards;animation-timing-function: linear;animation-direction: normal;animation-iteration-count: 1;}@keyframes eDu2qaRwQrn16_c_o { 0% {opacity: 0} 16.666667% {opacity: 1} 100% {opacity: 1}}@keyframes eDu2qaRwQrn16__fl { 0% {filter: blur(10px)} 16.666667% {filter: blur(0px)} 100% {filter: blur(0px)}} #eDu2qaRwQrn17_to {animation: eDu2qaRwQrn17_to__to 3000ms linear 1 normal forwards}@keyframes eDu2qaRwQrn17_to__to { 0% {transform: translate(552.382324px,132.550003px)} 16.666667% {transform: translate(582.382324px,132.550003px)} 100% {transform: translate(582.382324px,132.550003px)}} #eDu2qaRwQrn17 {animation-name: eDu2qaRwQrn17_c_o, eDu2qaRwQrn17__fl;animation-duration: 3000ms;animation-fill-mode: forwards;animation-timing-function: linear;animation-direction: normal;animation-iteration-count: 1;}@keyframes eDu2qaRwQrn17_c_o { 0% {opacity: 0} 16.666667% {opacity: 1} 100% {opacity: 1}}@keyframes eDu2qaRwQrn17__fl { 0% {filter: blur(10px)} 16.666667% {filter: blur(0px)} 100% {filter: blur(0px)}} #eDu2qaRwQrn18_to {animation: eDu2qaRwQrn18_to__to 3000ms linear 1 normal forwards}@keyframes eDu2qaRwQrn18_to__to { 0% {transform: translate(604.786499px,91.099998px)} 16.666667% {transform: translate(634.786499px,91.099998px)} 100% {transform: translate(634.786499px,91.099998px)}} #eDu2qaRwQrn18 {animation-name: eDu2qaRwQrn18_c_o, eDu2qaRwQrn18__fl;animation-duration: 3000ms;animation-fill-mode: forwards;animation-timing-function: linear;animation-direction: normal;animation-iteration-count: 1;}@keyframes eDu2qaRwQrn18_c_o { 0% {opacity: 0} 16.666667% {opacity: 1} 100% {opacity: 1}}@keyframes eDu2qaRwQrn18__fl { 0% {filter: blur(10px)} 16.666667% {filter: blur(0px)} 100% {filter: blur(0px)}} #eDu2qaRwQrn19_to {animation: eDu2qaRwQrn19_to__to 3000ms linear 1 normal forwards}@keyframes eDu2qaRwQrn19_to__to { 0% {transform: translate(599.400665px,132.599998px)} 16.666667% {transform: translate(629.400665px,132.599998px)} 100% {transform: translate(629.400665px,132.599998px)}} #eDu2qaRwQrn19 {animation-name: eDu2qaRwQrn19_c_o, eDu2qaRwQrn19__fl;animation-duration: 3000ms;animation-fill-mode: forwards;animation-timing-function: linear;animation-direction: normal;animation-iteration-count: 1;}@keyframes eDu2qaRwQrn19_c_o { 0% {opacity: 0} 16.666667% {opacity: 1} 100% {opacity: 1}}@keyframes eDu2qaRwQrn19__fl { 0% {filter: blur(10px)} 16.666667% {filter: blur(0px)} 100% {filter: blur(0px)}} #eDu2qaRwQrn20_to {animation: eDu2qaRwQrn20_to__to 3000ms linear 1 normal forwards}@keyframes eDu2qaRwQrn20_to__to { 0% {transform: translate(327.650009px,222.649994px)} 16.666667% {transform: translate(327.650009px,222.649994px)} 33.333333% {transform: translate(357.650009px,222.649994px)} 100% {transform: translate(357.650009px,222.649994px)}} #eDu2qaRwQrn20 {animation-name: eDu2qaRwQrn20_c_o, eDu2qaRwQrn20__fl;animation-duration: 3000ms;animation-fill-mode: forwards;animation-timing-function: linear;animation-direction: normal;animation-iteration-count: 1;}@keyframes eDu2qaRwQrn20_c_o { 0% {opacity: 0} 16.666667% {opacity: 0} 33.333333% {opacity: 1} 100% {opacity: 1}}@keyframes eDu2qaRwQrn20__fl { 0% {filter: blur(10px)} 16.666667% {filter: blur(10px)} 33.333333% {filter: blur(0px)} 100% {filter: blur(0px)}} #eDu2qaRwQrn22_to {animation: eDu2qaRwQrn22_to__to 3000ms linear 1 normal forwards}@keyframes eDu2qaRwQrn22_to__to { 0% {transform: translate(376.449997px,232.100006px)} 16.666667% {transform: translate(376.449997px,232.100006px)} 33.333333% {transform: translate(406.449997px,232.100006px)} 100% {transform: translate(406.449997px,232.100006px)}} #eDu2qaRwQrn22 {animation-name: eDu2qaRwQrn22_c_o, eDu2qaRwQrn22__fl;animation-duration: 3000ms;animation-fill-mode: forwards;animation-timing-function: linear;animation-direction: normal;animation-iteration-count: 1;}@keyframes eDu2qaRwQrn22_c_o { 0% {opacity: 0} 16.666667% {opacity: 0} 33.333333% {opacity: 1} 100% {opacity: 1}}@keyframes eDu2qaRwQrn22__fl { 0% {filter: blur(10px)} 16.666667% {filter: blur(10px)} 33.333333% {filter: blur(0px)} 100% {filter: blur(0px)}} #eDu2qaRwQrn23_to {animation: eDu2qaRwQrn23_to__to 3000ms linear 1 normal forwards}@keyframes eDu2qaRwQrn23_to__to { 0% {transform: translate(429.049973px,231.549988px)} 16.666667% {transform: translate(429.049973px,231.549988px)} 33.333333% {transform: translate(459.049973px,231.549988px)} 100% {transform: translate(459.049973px,231.549988px)}} #eDu2qaRwQrn23 {animation-name: eDu2qaRwQrn23_c_o, eDu2qaRwQrn23__fl;animation-duration: 3000ms;animation-fill-mode: forwards;animation-timing-function: linear;animation-direction: normal;animation-iteration-count: 1;}@keyframes eDu2qaRwQrn23_c_o { 0% {opacity: 0} 16.666667% {opacity: 0} 33.333333% {opacity: 1} 100% {opacity: 1}}@keyframes eDu2qaRwQrn23__fl { 0% {filter: blur(10px)} 16.666667% {filter: blur(10px)} 33.333333% {filter: blur(0px)} 100% {filter: blur(0px)}} #eDu2qaRwQrn24_to {animation: eDu2qaRwQrn24_to__to 3000ms linear 1 normal forwards}@keyframes eDu2qaRwQrn24_to__to { 0% {transform: translate(481.994629px,221.999985px)} 16.666667% {transform: translate(481.994629px,221.999985px)} 33.333333% {transform: translate(511.994629px,221.999985px)} 100% {transform: translate(511.994629px,221.999985px)}} #eDu2qaRwQrn24 {animation-name: eDu2qaRwQrn24_c_o, eDu2qaRwQrn24__fl;animation-duration: 3000ms;animation-fill-mode: forwards;animation-timing-function: linear;animation-direction: normal;animation-iteration-count: 1;}@keyframes eDu2qaRwQrn24_c_o { 0% {opacity: 0} 16.666667% {opacity: 0} 33.333333% {opacity: 1} 100% {opacity: 1}}@keyframes eDu2qaRwQrn24__fl { 0% {filter: blur(10px)} 16.666667% {filter: blur(10px)} 33.333333% {filter: blur(0px)} 100% {filter: blur(0px)}} #eDu2qaRwQrn25_to {animation: eDu2qaRwQrn25_to__to 3000ms linear 1 normal forwards}@keyframes eDu2qaRwQrn25_to__to { 0% {transform: translate(527.502716px,232.100006px)} 16.666667% {transform: translate(527.502716px,232.100006px)} 33.333333% {transform: translate(557.502716px,232.100006px)} 100% {transform: translate(557.502716px,232.100006px)}} #eDu2qaRwQrn25 {animation-name: eDu2qaRwQrn25_c_o, eDu2qaRwQrn25__fl;animation-duration: 3000ms;animation-fill-mode: forwards;animation-timing-function: linear;animation-direction: normal;animation-iteration-count: 1;}@keyframes eDu2qaRwQrn25_c_o { 0% {opacity: 0} 16.666667% {opacity: 0} 33.333333% {opacity: 1} 100% {opacity: 1}}@keyframes eDu2qaRwQrn25__fl { 0% {filter: blur(10px)} 16.666667% {filter: blur(10px)} 33.333333% {filter: blur(0px)} 100% {filter: blur(0px)}} #eDu2qaRwQrn28 {animation-name: eDu2qaRwQrn28_c_o, eDu2qaRwQrn28_s_do;animation-duration: 3000ms;animation-fill-mode: forwards;animation-timing-function: linear;animation-direction: normal;animation-iteration-count: 1;}@keyframes eDu2qaRwQrn28_c_o { 0% {opacity: 0} 16.666667% {opacity: 1} 100% {opacity: 1}}@keyframes eDu2qaRwQrn28_s_do { 0% {stroke-dashoffset: 691.15} 16.666667% {stroke-dashoffset: 0} 100% {stroke-dashoffset: 0}}]]></style><defs><linearGradient id="eDu2qaRwQrn28-stroke" x1="1.06181" y1="0.498381" x2="-0.066033" y2="0.555408" spreadMethod="pad" gradientUnits="objectBoundingBox" gradientTransform="translate(0 0)"><stop id="eDu2qaRwQrn28-stroke-0" offset="0%" stop-color="#fcb316"/><stop id="eDu2qaRwQrn28-stroke-1" offset="22.5966%" stop-color="#f78e1e"/><stop id="eDu2qaRwQrn28-stroke-2" offset="68.7984%" stop-color="#ee2e2d"/></linearGradient></defs><g><path d="M393.8,243.4c0,7.5,6.3,9,11.6,9c8.2,0,13.6-4.2,13.6-10.6v-7.6h-11.8c-9.2,0-13.4,2.8-13.4,9.2Z" fill="none"/><path d="M408,112.4c-6,0-10.6,3.3-12.5,8.9-.9,2.9-1.3,6-1.3,11.1c0,5.2.4,8.3,1.3,11.2c1.9,5.7,6.4,8.9,12.5,8.9c6.2,0,10.7-3.2,12.6-8.9.9-2.9,1.3-6.1,1.3-11.2s-.4-8.2-1.3-11.1c-1.9-5.7-6.4-8.9-12.6-8.9Z" fill="none"/><path d="M534.8,112.4c-6,0-10.6,3.3-12.5,9-1,2.9-1.3,6-1.3,11.1c0,5.2.4,8.3,1.3,11.2c1.9,5.7,6.4,8.9,12.5,8.9c6.2,0,10.7-3.2,12.6-8.9.9-2.9,1.3-6,1.3-11.2c0-5.1-.4-8.2-1.3-11.1-1.9-5.8-6.4-9-12.6-9Z" fill="none"/><path d="M201.7,91.2c-45.9,0-83.1,37.2-83.1,83.1s37.2,83.1,83.1,83.1s83.1-37.2,83.1-83.1-37.2-83.1-83.1-83.1Z" fill="none"/><path d="M357.5,112.4c-6.1,0-10.3,2.9-12.1,8.4-.9,2.7-1.3,6.3-1.3,11.8c0,5.4.4,9,1.3,11.6c1.7,5.5,5.9,8.4,12.1,8.4s10.2-2.8,12.1-8.4c.9-2.7,1.3-6.5,1.3-11.7c0-5.3-.4-9-1.3-11.8-1.9-5.4-6-8.3-12.1-8.3Z" fill="none"/><path d="M369.5,220.4c-1.8-5.6-5.9-8.4-12.1-8.4-6.1,0-10.3,2.9-12.1,8.4-.9,2.7-1.3,6.3-1.3,11.8c0,5.4.4,9,1.3,11.6c1.7,5.5,5.9,8.4,12.1,8.4s10.2-2.8,12.1-8.4c.9-2.7,1.3-6.5,1.3-11.7s-.4-9-1.3-11.7Z" fill="none"/><g id="eDu2qaRwQrn10_to" transform="translate(599.399963,143.848747)"><path id="eDu2qaRwQrn10" style="filter:blur(10px)" d="M616.8,143.9c0,7.5,6.3,9.1,11.6,9.1c8.3,0,13.6-4.2,13.6-10.6v-7.7h-11.8c-9.2-.1-13.4,2.8-13.4,9.2Z" transform="translate(-629.399963,-143.848747)" opacity="0" fill="none"/></g><g id="eDu2qaRwQrn11_to" transform="translate(327.550003,141.093758)"><path id="eDu2qaRwQrn11" style="filter:blur(10px)" d="M344.1,112.1v-3.7c0-1-.7-1.8-1.7-1.8h-3.5c-1,0-1.8.8-1.8,1.8v66.3c0,1,.7,1.8,1.8,1.8h3.5c1,0,1.7-.8,1.7-1.8v-21.5c3.1,4.4,7.9,6.6,14.5,6.6c8.9,0,14.9-4.2,17.6-12.6c1.3-4.1,1.8-8.6,1.8-14.4c0-5.9-.6-10.4-1.8-14.5-2.7-8.4-8.6-12.6-17.5-12.6-6.7-.2-11.5,2-14.6,6.4Zm25.4,8.8c.9,2.7,1.3,6.5,1.3,11.8c0,5.1-.4,8.9-1.3,11.7-1.8,5.6-5.9,8.4-12.1,8.4-6.1,0-10.3-2.9-12.1-8.4-.9-2.7-1.3-6.3-1.3-11.6c0-5.5.4-9.1,1.3-11.8c1.7-5.5,5.9-8.4,12.1-8.4c6.2-.2,10.3,2.7,12.1,8.3Z" transform="translate(-357.550003,-141.093758)" opacity="0" fill="#575756"/></g><g id="eDu2qaRwQrn12_to" transform="translate(378.049988,132.599998)"><path id="eDu2qaRwQrn12" style="filter:blur(10px)" d="M408,105.5c-9.4,0-16.4,5-19.2,13.7-1.2,3.9-1.7,7.8-1.7,13.4s.5,9.5,1.7,13.5v0c2.8,8.7,9.8,13.6,19.2,13.6c9.5,0,16.5-5,19.3-13.7c1.2-3.9,1.7-7.8,1.7-13.5c0-5.6-.5-9.4-1.7-13.4-2.8-8.7-9.8-13.6-19.3-13.6Zm12.6,38.2c-1.9,5.8-6.4,8.9-12.6,8.9-6,0-10.6-3.3-12.5-8.9-.9-2.9-1.3-6.1-1.3-11.2s.4-8.2,1.3-11.1c1.9-5.7,6.4-8.9,12.5-8.9c6.2,0,10.7,3.2,12.6,8.9.9,2.9,1.3,6,1.3,11.1c0,5.2-.3,8.3-1.3,11.2Z" transform="translate(-408.049988,-132.599998)" opacity="0" fill="#575756"/></g><g id="eDu2qaRwQrn13_to" transform="translate(426.387512,132.500011)"><path id="eDu2qaRwQrn13" style="filter:blur(10px)" d="M476.5,143.1c0-8.4-5.2-13.3-15-14.3l-5-.5c-9-.9-10.8-3.8-10.8-7.8c0-5.4,3.9-8.3,10.9-8.3c5.1,0,10.3,2,13.4,3.8.8.5,1.9.3,2.4-.5l1.9-2.6c.6-.8.4-1.9-.4-2.5-4.8-3.2-10.9-5-17-5-11.4,0-18.2,5.8-18.2,15.5c0,8.1,5.4,13.2,15.1,14.2l5,.5c9,1,10.7,3.7,10.7,8.2c0,5.7-4.4,9.1-12.2,9.1-7.2,0-12.5-3.1-15.8-5.8-.7-.5-1.7-.6-2.4.1l-2.3,2.6c-.7.7-.7,1.8,0,2.5v0c3.2,2.7,10.1,7.3,19.9,7.3c12.4,0,19.8-6.1,19.8-16.5Z" transform="translate(-456.387512,-132.500011)" opacity="0" fill="#575756"/></g><g id="eDu2qaRwQrn14_to" transform="translate(426.847961,91.250004)"><path id="eDu2qaRwQrn14" style="filter:blur(10px)" d="M453.3,98.1c.7.9,1.3,1.3,2.3,1.3h2.4c1.1,0,1.6-.4,2.2-1.2l9.5-12.9c.4-.5.5-1.1.3-1.5s-.7-.7-1.2-.7h-2.8c-1.2,0-1.6.4-2.3,1.3l-7,8.5-6.9-8.5c-.8-.9-1.3-1.3-2.3-1.3h-2.6c-.6,0-1,.3-1.2.7-.2.5-.1,1,.2,1.5l9.4,12.8Z" transform="translate(-456.847961,-91.250004)" opacity="0" fill="#575756"/></g><g id="eDu2qaRwQrn15_to" transform="translate(465.750015,124.599995)"><path id="eDu2qaRwQrn15" style="filter:blur(10px)" d="M503.8,158.9h2.7c1,0,1.7-.8,1.7-1.8v-3.4c0-1-.8-1.8-1.7-1.8h-2c-5.1,0-7.3-1.1-7.3-7.8v-31.1h9.3c1,0,1.7-.7,1.7-1.8v-3c0-1-.8-1.8-1.7-1.8h-9.3v-14.3c0-1-.8-1.8-1.8-1.8h-3.5c-1,0-1.8.8-1.8,1.8v14.5h-5.1c-1,0-1.7.8-1.7,1.8v3c0,1,.7,1.8,1.7,1.8h5.1v31.4c.1,10.3,3.9,14.3,13.7,14.3Z" transform="translate(-495.750015,-124.599995)" opacity="0" fill="#575756"/></g><g id="eDu2qaRwQrn16_to" transform="translate(504.899994,132.500004)"><path id="eDu2qaRwQrn16" style="filter:blur(10px)" d="M554.2,146c1.2-3.9,1.7-7.8,1.7-13.5c0-5.6-.5-9.4-1.7-13.4-2.8-8.7-9.9-13.7-19.4-13.7-9.4,0-16.4,5-19.2,13.7-1.2,3.9-1.7,7.8-1.7,13.4c0,5.7.5,9.6,1.7,13.5v0c2.8,8.7,9.8,13.6,19.2,13.6c9.5,0,16.6-4.9,19.4-13.6Zm-6.8-2.3c-1.9,5.8-6.4,8.9-12.6,8.9-6,0-10.6-3.3-12.5-8.9-1-2.9-1.3-6-1.3-11.2c0-5.1.4-8.2,1.3-11.1c1.9-5.7,6.4-9,12.5-9c6.2,0,10.7,3.2,12.6,9c.9,2.9,1.3,6,1.3,11.1c0,5.2-.4,8.3-1.3,11.2Z" transform="translate(-534.899994,-132.500004)" opacity="0" fill="#575756"/></g><g id="eDu2qaRwQrn17_to" transform="translate(552.382324,132.550003)"><path id="eDu2qaRwQrn17" style="filter:blur(10px)" d="M602.5,106.5h-3.9c-1.2,0-1.7.7-2,1.5l-14.1,38.9L568.1,108c-.3-.8-.8-1.5-2-1.5h-3.9c-.8,0-1.2.4-1.3.6-.3.4-.3.9-.1,1.4l18,48.5c.1.4.5,1.6,1.9,1.6h3.3c.9,0,1.6-.6,1.9-1.5L604,108.6c.2-.5.1-1-.2-1.4-.2-.4-.7-.7-1.3-.7Z" transform="translate(-582.382324,-132.550003)" opacity="0" fill="#575756"/></g><g id="eDu2qaRwQrn18_to" transform="translate(604.786499,91.099998)"><path id="eDu2qaRwQrn18" style="filter:blur(10px)" d="M628.3,99.4h2.6c1.1,0,1.7-.5,2.4-1.4l9.2-12.9c.4-.5.4-1,.2-1.5s-.7-.8-1.3-.8h-4c-1.1,0-1.9.5-2.4,1.4l-8.1,13c-.3.7-.1,1.2,0,1.5.4.4.8.7,1.4.7Z" transform="translate(-634.786499,-91.099998)" opacity="0" fill="#575756"/></g><g id="eDu2qaRwQrn19_to" transform="translate(599.400665,132.599998)"><path id="eDu2qaRwQrn19" style="filter:blur(10px)" d="M630.1,105.5c-6.9,0-12.5,1.8-16.3,5-.8.6-1,1.6-.5,2.5l1.8,2.7c.7.8,1.7.9,2.6.2v0c3.1-2.5,6.6-3.6,12.1-3.6c10.3,0,12.2,3.7,12.2,10.9v5.1h-12.5c-12.8,0-19.6,5.4-19.6,15.7c0,9.8,6.5,15.7,17.4,15.7c6.6,0,12-2.1,14.8-5.8v3c0,1,.8,1.8,1.7,1.8h3.3c1,0,1.8-.8,1.8-1.8v-33.9c.1-12.6-5.2-17.5-18.8-17.5ZM642,142.3c0,6.5-5.3,10.6-13.6,10.6-5.3,0-11.6-1.6-11.6-9.1c0-6.4,4.1-9.2,13.4-9.2h11.8v7.7Z" transform="translate(-629.400665,-132.599998)" opacity="0" fill="#575756"/></g><g id="eDu2qaRwQrn20_to" transform="translate(327.650009,222.649994)"><path id="eDu2qaRwQrn20" style="filter:blur(10px)" d="M376.2,217.6c-2.7-8.4-8.6-12.6-17.5-12.6-6.6,0-11.5,2.2-14.5,6.6v-23.8c0-1-.7-1.8-1.7-1.8h-3.5c-1,0-1.8.7-1.8,1.8v68.6c0,1,.7,1.8,1.8,1.8h3.5c1,0,1.7-.8,1.7-1.8v-3.7c3.1,4.4,7.9,6.6,14.5,6.6c8.9,0,14.9-4.2,17.6-12.6c1.3-4.1,1.8-8.6,1.8-14.4-.1-6.1-.6-10.5-1.9-14.7Zm-6.7,26.2c-1.8,5.6-5.9,8.4-12.1,8.4-6.1,0-10.3-2.9-12.1-8.4-.9-2.7-1.3-6.3-1.3-11.6c0-5.5.4-9.1,1.3-11.8c1.7-5.5,5.9-8.4,12.1-8.4s10.2,2.8,12.1,8.4c.9,2.7,1.3,6.5,1.3,11.8c0,5.1-.4,8.9-1.3,11.6Z" transform="translate(-357.650009,-222.649994)" opacity="0" fill="#575756" stroke-width="0"/></g><path d="M545,243.4c0,7.5,6.3,9,11.6,9c8.2,0,13.6-4.2,13.6-10.6v-7.6h-11.8c-9.2,0-13.4,2.8-13.4,9.2Z" fill="none"/><g id="eDu2qaRwQrn22_to" transform="translate(376.449997,232.100006)"><path id="eDu2qaRwQrn22" style="filter:blur(10px)" d="M407.1,205c-6.8,0-12.5,1.7-16.3,5-.8.6-1,1.6-.4,2.5l1.8,2.7c.7.8,1.7.9,2.6.2c3.1-2.6,6.7-3.7,12.1-3.7c10.3,0,12.2,3.7,12.2,11v5.1h-12.6c-12.8,0-19.6,5.4-19.6,15.7c0,9.8,6.5,15.7,17.4,15.7c6.6,0,12-2.1,14.8-5.8v3c0,1,.7,1.8,1.8,1.8h3.3c1,0,1.8-.8,1.8-1.8v-33.8c0-12.7-5.3-17.6-18.9-17.6ZM419,241.8c0,6.5-5.3,10.6-13.6,10.6-5.3,0-11.6-1.6-11.6-9c0-6.4,4.1-9.2,13.4-9.2h11.8v7.6Z" transform="translate(-406.449997,-232.100006)" opacity="0" fill="#575756"/></g><g id="eDu2qaRwQrn23_to" transform="translate(429.049973,231.549988)"><path id="eDu2qaRwQrn23" style="filter:blur(10px)" d="M460.5,205c-6.1,0-11.1,2.3-14.1,6.5v-3.7c0-1-.7-1.8-1.7-1.8h-3.5c-1,0-1.8.8-1.8,1.8v48.5c0,1,.7,1.8,1.8,1.8h3.5c1,0,1.7-.8,1.7-1.8v-31c0-8,5.2-13.4,12.9-13.4c8.3,0,12.3,4.7,12.3,14.4v29.9c0,1,.7,1.8,1.8,1.8h3.5c1,0,1.8-.8,1.8-1.8v-31.3c-.1-12.6-6.7-19.9-18.2-19.9Z" transform="translate(-459.049973,-231.549988)" opacity="0" fill="#575756"/></g><g id="eDu2qaRwQrn24_to" transform="translate(481.994629,221.999985)"><path id="eDu2qaRwQrn24" style="filter:blur(10px)" d="M513.6,225.6l14.3-17.3c.4-.4.5-.9.3-1.4s-.7-.9-1.3-.9h-4.3c-1.2,0-1.7.6-2.3,1.3L499,232.9v-45.2c0-1-.7-1.8-1.8-1.8h-3.5c-1,0-1.7.7-1.7,1.8v68.6c0,1,.8,1.8,1.7,1.8h3.5c1,0,1.8-.8,1.8-1.8v-13.2l9.8-11.8l15.3,25.4c.6.9,1.1,1.4,2.1,1.4h4.3c.6,0,1.1-.3,1.3-.7.3-.4.2-1,0-1.5l-18.2-30.3Z" transform="translate(-511.994629,-221.999985)" opacity="0" fill="#575756"/></g><g id="eDu2qaRwQrn25_to" transform="translate(527.502716,232.100006)"><path id="eDu2qaRwQrn25" style="filter:blur(10px)" d="M558.3,205c-6.9,0-12.5,1.7-16.3,5-.8.6-1,1.6-.5,2.5l1.8,2.7c.6.8,1.7.9,2.5.2c3.1-2.6,6.7-3.7,12.1-3.7c10.3,0,12.2,3.7,12.2,11v5.1h-12.5c-12.8,0-19.6,5.4-19.6,15.7c0,9.8,6.5,15.7,17.4,15.7c6.6,0,12-2.1,14.8-5.8v3c0,1,.8,1.8,1.8,1.8h3.3c1,0,1.7-.8,1.7-1.8v-33.8c.2-12.7-5.1-17.6-18.7-17.6Zm11.9,36.8c0,6.5-5.3,10.6-13.6,10.6-5.3,0-11.6-1.6-11.6-9c0-6.4,4.1-9.2,13.4-9.2h11.8v7.6Z" transform="translate(-557.502716,-232.100006)" opacity="0" fill="#575756"/></g></g><g><ellipse id="eDu2qaRwQrn28" rx="110" ry="110" transform="matrix(-.671793-.563701 0.563701-.671793 201.833115 174.833115)" opacity="0" fill="none" stroke="url(#eDu2qaRwQrn28-stroke)" stroke-width="30" stroke-linecap="round" stroke-dashoffset="691.15" stroke-dasharray="691.15"/></g></svg>