<?xml version="1.0" encoding="UTF-8"?>
<svg width="56px" height="56px" viewBox="0 0 56 56" version="1.1" xmlns="http://www.w3.org/2000/svg" xmlns:xlink="http://www.w3.org/1999/xlink">
    <!-- Generator: sketchtool 62 (101010) - https://sketch.com -->
    <title>AC6F0393-D997-421A-A707-957F183AF8DD@1.00x</title>
    <desc>Created with sketchtool.</desc>
    <g id="Specific" stroke="none" stroke-width="1" fill="none" fill-rule="evenodd">
        <g id="George-icon" fill="#2870ED">
            <path d="M43.1867625,37.3231687 C43.1867625,45.6916687 36.37795,52.5000437 28.00945,52.5000437 L28.00945,52.5000437 L28.00945,47.7072312 C33.73545,47.7072312 38.39395,43.0491687 38.39395,37.3231687 L38.39395,37.3231687 Z M27.9904625,3.49986875 C36.3589625,3.49986875 43.1673375,10.3082438 43.1673375,18.6767438 C43.1673375,27.0452438 36.3589625,33.8536188 27.9904625,33.8536188 C19.621525,33.8536188 12.8135875,27.0452438 12.8135875,18.6767438 C12.8135875,10.3082438 19.621525,3.49986875 27.9904625,3.49986875 Z M27.9904625,8.29268125 C22.2644625,8.29268125 17.6059625,12.9511813 17.6059625,18.6767438 C17.6059625,24.4027438 22.2644625,29.0608063 27.9904625,29.0608063 C33.716025,29.0608063 38.374525,24.4027438 38.374525,18.6767438 C38.374525,12.9511813 33.716025,8.29268125 27.9904625,8.29268125 Z" id="Mask"></path>
        </g>
    </g>
</svg>
